#!OML:ASF F:\VICON\USERDATA\INSTALL\rory3\rory3.ASF
:FULLY-SPECIFIED
:DEGREES
53
root 0.3026634395348223 17.476230435416056 20.160589841711214 0.8915809455174354 3.276905250739496 3.8627279912872208
lfemur -12.664476247195378 -3.9785419601722163 -24.242417179127475
ltibia 36.15975151125674
lfoot -12.3920639415005 0.3332460668179982
ltoes -2.7337639630199377
rfemur -19.106445383883788 2.567174944548326 21.880081134993794
rtibia 88.37932205224284
rfoot -0.2353416833770905 -9.350001930947476
rtoes 8.325860687909529
lowerback 13.69869825082045 0.7055439352756213 -2.1954001087030086
upperback 0.17730101492798594 0.620172915620205 0.29540159807260746
thorax -7.443993889350899 0.34222004207759465 2.0148776629811227
lowerneck -18.17012968979522 -3.02729681882453 -2.45810732478186
upperneck 18.108633059918997 -3.515291588998807 1.5072992024544893
head 8.454756283664393 -1.6750384953936701 0.5277025207428243
lclavicle -1.6810911587193094e-15 -3.596050604793918e-15
lhumerus -42.10613866773402 -7.887211980300352 90.25378806316616
lradius 62.0738383956156
lwrist 10.956515625987958
lhand -30.009371497728203 12.564463461973732
lfingers 7.125019999999999
lthumb -3.075115349218066 42.48880620642932
rclavicle -1.6782483677169597e-15 -3.594033503961965e-15
rhumerus -37.60855479843411 -8.053133072756902 -88.85792086014237
rradius 59.41700039113654
rwrist -4.323085938265143
rhand -18.875033860045885 27.458908586882924
rfingers 7.125019999999999
rthumb 7.134952589047715 -2.4624022888229327
54
root 0.32562585759627194 17.479305800460025 21.167042492896954 1.4082976830535119 3.1272717750835985 4.148453207678364
lfemur -10.286840555239094 -3.915962455900422 -25.001195957479148
ltibia 36.244470147513724
lfoot -12.328298984520382 -0.22206557988084974
ltoes -3.6679790341426752
rfemur -22.279101163012434 2.3632963913640888 21.292299218232312
rtibia 88.06357244962246
rfoot 0.1967602402209785 -9.769339980348715
rtoes 8.208735004295596
lowerback 13.736658383220103 0.47681943713555197 -2.432071785267007
upperback 0.12989140831512797 0.31023359466468003 0.4933035211029666
thorax -7.526101999777898 0.20966830230154637 2.4591070461051006
lowerneck -18.390353864508196 -2.9745839182430944 -2.358653176761608
upperneck 17.71546673803926 -3.4943186366405623 1.5253505808419456
head 8.414520007738322 -1.6493619723460786 0.5078487189775802
lclavicle -1.6805848649964897e-15 -3.595689500427886e-15
lhumerus -41.56671211651155 -8.173820991330912 89.98047220287643
lradius 62.54709774780231
lwrist 9.156111261624803
lhand -29.263314813136603 12.628911609311977
lfingers 7.125019999999999
lthumb -2.3518929376145925 42.778518931887284
rclavicle -1.6765392686586692e-15 -3.592825176053294e-15
rhumerus -37.472265453815055 -7.139801943977616 -89.38067907082946
rradius 59.46094920654565
rwrist -4.601834330008392
rhand -18.590655140244454 27.437665993929812
rfingers 7.125019999999999
rthumb 7.478291699617551 -2.123383747720956
55
root 0.3487774254286561 17.522180308054914 21.79759486649074 1.9185765752883963 3.0171066828064825 4.376732628585649
lfemur -7.496594955734219 -3.9891472448943803 -25.372514757018717
ltibia 35.53976564746406
lfoot -10.68133753638593 -1.570808109462428
ltoes -5.369194629105949
rfemur -25.090179900652274 2.038342129614832 20.73226681037667
rtibia 84.88423817274321
rfoot -0.5014198529585414 -9.880130871157132
rtoes 5.597730364209191
lowerback 13.784231531047418 0.16607383875661358 -2.617566819635512
upperback -0.06760435121529784 -0.07505355524019697 0.711324834740315
thorax -7.675669113670349 0.04193615365589415 2.946214064678048
lowerneck -18.233365801910423 -2.918285656786117 -2.3132692199760223
upperneck 17.34864089089786 -3.4175619205260195 1.5944431326257584
head 8.278756147408876 -1.5921870975133277 0.542658363665022
lclavicle -1.677593706361964e-15 -3.59357866590761e-15
lhumerus -40.849828892575 -8.132246106469069 89.72710093205168
lradius 63.362097902566
lwrist 11.315884091552642
lhand -28.441100179841897 12.175718041493829
lfingers 7.125019999999999
lthumb -1.612059836014167 42.183869986807515
rclavicle -1.6760748816446377e-15 -3.592496615807511e-15
rhumerus -37.6170507042653 -6.077120930296405 -89.89853290577254
rradius 59.43944101598542
rwrist -4.907087939901927
rhand -17.995519469056035 27.769228367769397
rfingers 7.125019999999999
rthumb 8.00022428616427 -1.8363472711764501
56
root 0.3349873926989631 17.405750753005893 22.644591307723726 1.8372902806730618 2.9210851043276795 4.241214875059766
lfemur -5.092347558762951 -4.051163070863688 -25.335908738805976
ltibia 36.087322391129824
lfoot -10.572685040611908 -2.6176284828862584
ltoes -6.747342412302375
rfemur -26.69642383775483 1.8372198987958814 20.57109841459834
rtibia 79.67754454093648
rfoot -1.4706110294802146 -9.99297489418866
rtoes 5.537427897491062
lowerback 14.26564109522628 -0.15989710444133415 -2.643987951523653
upperback -0.05667840440076627 -0.4523601306105951 1.010452549008181
thorax -7.954737594523533 -0.13473011572857319 3.344536355444263
lowerneck -17.99073668746046 -2.9069817994905827 -2.336662576442532
upperneck 17.177161539235083 -3.4323882833397614 1.6954415937522274
head 8.1945322260922 -1.5987074789689604 0.5864262235637059
lclavicle -1.676226158046125e-15 -3.592615249091263e-15
lhumerus -40.19546176361042 -8.326059600369579 89.50457225856292
lradius 64.77140179969902
lwrist 15.839072841437542
lhand -28.265540705361445 11.898308198288452
lfingers 7.125019999999999
lthumb -1.602964173163402 41.66092751830534
rclavicle -1.6768983593726148e-15 -3.5930788648328094e-15
rhumerus -37.88849218173572 -5.201089189165842 -90.12287474647896
rradius 59.34401189695589
rwrist -4.9477372580968035
rhand -17.680305911169945 27.989968400248358
rfingers 7.125019999999999
rthumb 8.361218321265378 -1.412361877352159
57
root 0.34237848676670374 17.31887559376794 23.865146770539873 2.281262359912123 2.809542147358755 3.324614172925621
lfemur -2.9513157136576 -4.474645275876836 -24.48349307633354
ltibia 35.32006020738247
lfoot -9.537942594249335 -3.750880622034966
ltoes -8.174662063500927
rfemur -27.93674259267355 1.8883816631756773 21.477925177527982
rtibia 72.63377625128692
rfoot -1.253731577701951 -10.562197017249218
rtoes 6.742512329666132
lowerback 13.79324733613193 -0.4947885029683799 -1.9695683699292106
upperback -0.18889616259644834 -0.7779253782482467 1.3954649528731196
thorax -7.623616343846179 -0.24162724187034557 3.474151249046632
lowerneck -17.89835179602783 -2.9022955096952683 -2.3785662725304078
upperneck 17.536757802846772 -3.4613111803000667 1.7687915471161864
head 8.358976681842387 -1.597697280240546 0.6100494351749659
lclavicle -1.6765415380406641e-15 -3.59283348989933e-15
lhumerus -39.59588747939954 -8.70154868714851 89.1836054996255
lradius 66.31177312027438
lwrist 18.61106737296827
lhand -28.537729849550683 11.593481726364251
lfingers 7.125019999999999
lthumb -1.9860696513980272 41.48894814516656
rclavicle -1.6763927553862442e-15 -3.5927212723028304e-15
rhumerus -38.353883973106086 -4.5848189728511475 -90.0670762740733
rradius 59.544499590836594
rwrist -4.502479569064503
rhand -17.323880360321215 28.160366724251784
rfingers 7.125019999999999
rthumb 8.866101019362574 -0.4823162538221823
58
root 0.3553293066136894 17.35985679307266 25.068316671166777 2.295541686335021 2.586722883193768 2.6797360649969573
lfemur -1.3402630653990428 -4.6159587099456685 -23.999289984756263
ltibia 34.72850997781791
lfoot -5.390595467551293 -5.464529604401844
ltoes -13.253616633201286
rfemur -28.965576322813888 1.7578244969497816 22.06811645527648
rtibia 64.2520274884658
rfoot 0.29162996596383817 -11.437277323722512
rtoes 2.9077153690916218
lowerback 13.560340532132098 -0.7870464217011464 -1.4982957657472116
upperback -0.4132640605310621 -1.0011016431919963 1.7094161981462364
thorax -7.5206634377176425 -0.39060584088630246 3.5120290596645845
lowerneck -17.81729242872578 -2.874996786726287 -2.4465094510246868
upperneck 17.859031878764853 -3.4031665916205602 1.7324629588881568
head 8.51169183425924 -1.5808473832957193 0.5907093496419256
lclavicle -1.674035255276691e-15 -3.5910648691666745e-15
lhumerus -39.399302961772236 -8.360744399374596 88.87926568643915
lradius 67.79649600542658
lwrist 17.877276266977425
lhand -28.612291293630538 11.791007520642669
lfingers 7.125019999999999
lthumb -2.0456384206234364 41.66554632856433
rclavicle -1.675742839237721e-15 -3.592261762165831e-15
rhumerus -38.88481555168893 -4.392117372057005 -89.73877425510935
rradius 59.29424859625916
rwrist -3.4357733984899648
rhand -17.189079545809847 27.910294351822905
rfingers 7.125019999999999
rthumb 9.124007947592233 -0.3926990569377658
59
root 0.3913052952939486 17.484387124050347 25.691577971310522 2.820528863569157 3.3998420141778904 2.499469394271669
lfemur -0.4730210988537742 -5.092614702274587 -23.690434619828977
ltibia 33.73471045839422
lfoot 3.341872906566703 -8.062789344139
ltoes -15.948060944326796
rfemur -29.7021359957143 0.9484015446992133 22.0712014017594
rtibia 55.02080540928495
rfoot 2.4849466323308826 -12.562084540206435
rtoes 3.0069376309622804
lowerback 12.961333439632604 -1.267026268137023 -1.000882148171336
upperback -0.9148071396974413 -1.5353431258898735 1.850204607188877
thorax -7.453766233589885 -0.6203678540137089 3.4213104734776056
lowerneck -17.616964010251316 -2.8618761652391633 -2.5718987128891135
upperneck 18.084909123394187 -3.3530983751798535 1.6757682962282388
head 8.528282289647013 -1.5633075829014924 0.572933639497677
lclavicle -1.671120081177031e-15 -3.589001096757015e-15
lhumerus -39.8763013064443 -8.02667720540294 88.58349611487922
lradius 69.68699131302219
lwrist 16.392058842261402
lhand -28.34070133247027 12.200448237710638
lfingers 7.125019999999999
lthumb -1.2156958443768082 42.3877913269984
rclavicle -1.6753232480301642e-15 -3.5919649897514315e-15
rhumerus -39.93553731633528 -4.766613457418842 -89.1371281457387
rradius 59.20225868639576
rwrist -2.7747599297339622
rhand -17.033516498689014 27.686968079131983
rfingers 7.125019999999999
rthumb 9.21112790354515 -0.6737620665837718
